# xmcd CD database file
#
# Track frame offsets:
#	150
#	14452
#	24847
#	37336
#	62124
#	80906
#	91540
#	124658
#	150643
#	161868
#	182826
#	211635
#	237794
#	264503
#	279493
#	302223
#	317742
#
# Disc length: 4738 seconds
#
# Revision: 2
# Processed by: cddbd v1.5.2PL0 Copyright (c) Steve Scherf et al.
# Submitted via: CDex 1.81
#
DISCID=e1128011
DTITLE=BestJazz100-PremiumStandards - Best Jazz 100 Premium Standards 6 - Pops Standards
DYEAR=2000
DGENRE=Jazz
TTITLE0=California Dreaming
TTITLE1=Help
TTITLE2=You Are The Sunshine Of My Life
TTITLE3=Lovin' You
TTITLE4=Feelings
TTITLE5=Music To Watch Girls By
TTITLE6=Bridge Over Troubled Water
TTITLE7=Satisfaction
TTITLE8=Michelle
TTITLE9=Fragile
TTITLE10=Imagine
TTITLE11=Yesterday
TTITLE12=Sunny
TTITLE13=Walk Don't Run
TTITLE14=Just The Way You Are
TTITLE15=I Can't Stop Loving You
TTITLE16=Scarborough Fair
EXTD=YEAR: 2000
EXTT0=
EXTT1=
EXTT2=
EXTT3=
EXTT4=
EXTT5=
EXTT6=
EXTT7=
EXTT8=
EXTT9=
EXTT10=
EXTT11=
EXTT12=
EXTT13=
EXTT14=
EXTT15=
EXTT16=
PLAYORDER=
